<svg xmlns="http://www.w3.org/2000/svg" xmlns:xlink="http://www.w3.org/1999/xlink" viewBox="0 0 1131 898.92"><defs><style>.cls-1{fill:none;}.cls-2{fill:#ffd30f;}.cls-3{fill:#e5e5e5;}.cls-4{fill:#e4f0f4;}.cls-5{fill:#f3fcff;}.cls-6{fill:#a9d1ea;}.cls-7{fill:#509ddd;}.cls-8{fill:url(#linear-gradient);}.cls-9{fill:url(#linear-gradient-2);}.cls-10{fill:#fff;}.cls-11{fill:#7292a0;}.cls-12{fill:#e2e2ed;}.cls-13{fill:#6c6289;}.cls-14,.cls-15{fill:#62567d;}.cls-14{opacity:0.59;}.cls-16{fill:#7d74a3;}.cls-17{fill:#637c84;}.cls-18{fill:url(#linear-gradient-3);}.cls-19{fill:#f70;}.cls-20{fill:#fc9447;}.cls-21{fill:#f9a870;}.cls-22{fill:#ffac0f;}.cls-23{fill:#fcdd5e;}.cls-24{fill:#a1d182;}.cls-25{fill:#b0e492;}.cls-26{fill:#c3f2a5;}.cls-27{fill:#4545a8;}.cls-28{fill:#ceceef;}.cls-29{fill:#5050ba;}.cls-30{fill:#ffb190;}.cls-31{fill:url(#linear-gradient-4);}.cls-32{fill:#ff5f8d;}.cls-33{fill:#e64867;}.cls-34{fill:#edbcb2;}.cls-35{fill:#f7c7bb;}.cls-36{fill:#434f56;}.cls-37{fill:#404040;}.cls-38{fill:url(#linear-gradient-5);}.cls-39{fill:url(#linear-gradient-6);}.cls-40{fill:url(#linear-gradient-7);}.cls-41{fill:url(#linear-gradient-8);}.cls-42{fill:#302c81;}.cls-43{fill:#e7eff2;}.cls-44{fill:#cfd9e2;}.cls-45{fill:#ccd3d6;}.cls-46{clip-path:url(#clip-path);}</style><linearGradient id="linear-gradient" x1="323.03" y1="498.97" x2="244.03" y2="382.97" gradientUnits="userSpaceOnUse"><stop offset="0" stop-color="#fff"/><stop offset="1" stop-color="#ceceef"/></linearGradient><linearGradient id="linear-gradient-2" y1="313.65" x2="288.77" y2="313.65" gradientUnits="userSpaceOnUse"><stop offset="0" stop-color="#f2f2f2"/><stop offset="1" stop-color="#ceceef"/></linearGradient><linearGradient id="linear-gradient-3" x1="256.83" y1="602.85" x2="768.66" y2="602.85" gradientUnits="userSpaceOnUse"><stop offset="0" stop-color="#f2f2f2"/><stop offset="1" stop-color="#96d6ff"/></linearGradient><linearGradient id="linear-gradient-4" x1="588.25" y1="475.77" x2="751.21" y2="475.77" gradientUnits="userSpaceOnUse"><stop offset="0" stop-color="#fff"/><stop offset="1" stop-color="#96d6ff"/></linearGradient><linearGradient id="linear-gradient-5" x1="217.46" y1="418.19" x2="236.03" y2="418.19" gradientUnits="userSpaceOnUse"><stop offset="0" stop-color="#ffb190"/><stop offset="1" stop-color="#ff9b90"/></linearGradient><linearGradient id="linear-gradient-6" x1="236.51" y1="414.43" x2="255.08" y2="414.43" xlink:href="#linear-gradient-5"/><linearGradient id="linear-gradient-7" x1="255.47" y1="407.8" x2="272.39" y2="407.8" xlink:href="#linear-gradient-5"/><linearGradient id="linear-gradient-8" x1="272.9" y1="401.69" x2="289.82" y2="401.69" xlink:href="#linear-gradient-5"/><clipPath id="clip-path"><polygon class="cls-1" points="294.5 767.31 221.31 811.36 261 824.61 328.26 786.12 294.5 767.31"/></clipPath></defs><title>Asset 2</title><g id="Layer_2" data-name="Layer 2"><g id="Layer_1-2" data-name="Layer 1"><path class="cls-2" d="M1118.59,491.21S1112,512.4,1112,541c0,0,5.59,5,19,0,0,0-3.35-41.07-7.82-49.78Z"/><circle class="cls-2" cx="1121" cy="487.23" r="8"/><polygon class="cls-3" points="359.91 302.47 426.97 266.32 485.7 302.47 426.97 339.79 359.91 302.47"/><polygon class="cls-3" points="435.91 346.47 502.97 310.32 561.7 346.47 502.97 383.79 435.91 346.47"/><polygon class="cls-4" points="359.91 134.47 359.91 281.72 426.97 322.45 426.97 171.79 359.91 134.47"/><polygon class="cls-5" points="359.91 134.47 426.97 98.32 485.7 134.47 426.97 171.79 359.91 134.47"/><polygon class="cls-6" points="485.7 134.47 485.7 277.34 426.97 322.45 426.97 171.79 485.7 134.47"/><polygon class="cls-4" points="445.29 112.12 445.29 330.53 512.35 371.26 512.35 149.44 445.29 112.12"/><polygon class="cls-5" points="445.29 112.12 512.35 75.97 571.08 112.12 512.35 149.44 445.29 112.12"/><polygon class="cls-6" points="571.08 112.12 571.08 326.15 512.35 371.26 512.35 149.44 571.08 112.12"/><polygon class="cls-4" points="531.84 85.8 531.84 380.12 598.89 420.85 598.89 123.12 531.84 85.8"/><polygon class="cls-5" points="531.84 85.8 598.89 49.65 657.62 85.8 598.89 123.12 531.84 85.8"/><polygon class="cls-6" points="657.62 85.8 657.62 375.74 598.89 420.85 598.89 123.12 657.62 85.8"/><polygon class="cls-4" points="620.43 36.15 620.43 433.19 687.49 473.92 687.49 73.47 620.43 36.15"/><polygon class="cls-5" points="620.43 36.15 687.49 0 746.22 36.15 687.49 73.47 620.43 36.15"/><polygon class="cls-6" points="746.22 36.15 746.22 428.81 687.49 473.92 687.49 73.47 746.22 36.15"/><ellipse class="cls-7" cx="685.39" cy="98.58" rx="10.53" ry="12.88" transform="translate(68.98 414.05) rotate(-35.29)"/><ellipse class="cls-7" cx="599.58" cy="257.37" rx="10.53" ry="12.88" transform="translate(-38.51 393.65) rotate(-35.29)"/><ellipse class="cls-7" cx="512.29" cy="214.8" rx="10.53" ry="12.88" transform="translate(-29.96 335.4) rotate(-35.29)"/><ellipse class="cls-7" cx="427.09" cy="255.65" rx="10.53" ry="12.88" transform="translate(-69.21 293.69) rotate(-35.29)"/><ellipse class="cls-7" cx="359.61" cy="250.04" rx="10.53" ry="12.88" transform="translate(-78.37 253.68) rotate(-35.29)"/><polygon class="cls-7" points="600.41 261.9 512.26 216.97 427.45 257.63 359.45 251.98 359.77 248.1 426.72 253.67 512.31 212.63 598.76 256.69 683.67 96.03 687.11 97.84 600.41 261.9"/><ellipse class="cls-2" cx="682.58" cy="96.25" rx="10.53" ry="12.88" transform="translate(69.81 412) rotate(-35.29)"/><ellipse class="cls-2" cx="596.77" cy="255.04" rx="10.53" ry="12.88" transform="translate(-37.68 391.6) rotate(-35.29)"/><ellipse class="cls-2" cx="509.48" cy="212.47" rx="10.53" ry="12.88" transform="translate(-29.13 333.35) rotate(-35.29)"/><ellipse class="cls-2" cx="424.28" cy="253.32" rx="10.53" ry="12.88" transform="translate(-68.38 291.64) rotate(-35.29)"/><ellipse class="cls-2" cx="356.8" cy="247.71" rx="10.53" ry="12.88" transform="translate(-77.54 251.63) rotate(-35.29)"/><polygon class="cls-2" points="598.89 263.66 509.41 218.04 425.21 258.42 356.39 252.69 357.21 242.73 423.34 248.23 509.54 206.89 594.65 250.28 678.16 92.27 687 96.94 598.89 263.66"/><polygon class="cls-8" points="30.45 510.22 316.76 346.09 641.89 526.32 378 712.36 30.45 510.22"/><polygon class="cls-9" points="288.77 128.66 0 294.84 0 498.64 284.36 313.65 288.77 128.66"/><polygon class="cls-10" points="27.54 311.85 27.54 499.84 315.01 308.5 315.01 144.4 27.54 311.85"/><path class="cls-11" d="M256.83,567.74v14.72L564.29,758.57a22.76,22.76,0,0,0,20.22-2.33l184.27-107.3V634.46L525,643.89Z"/><polygon class="cls-12" points="1127.61 576.63 929.73 692.09 719.8 580.13 926.62 465.83 1127.61 576.63"/><path class="cls-13" d="M831.37,532.7v55.59s12.83,45.49,101.86,44.32c0,0,70-.39,86.3-48.21V512.48Z"/><polygon class="cls-14" points="830.79 565.47 921.42 615.35 1018.95 561.64 1018.95 496.53 830.79 505.54 830.79 565.47"/><polygon class="cls-15" points="922.89 363.36 725.63 479.83 725.91 484.88 924.17 596.16 1127.56 481.04 1128 475.55 922.89 363.36"/><polygon class="cls-16" points="922.89 358.25 725.91 479.76 924.17 591.05 1127.56 475.93 922.89 358.25"/><path class="cls-17" d="M463.31,200.93,764.43,373.58a18.22,18.22,0,0,1,9.16,15.56l3.15,228.25a8.72,8.72,0,0,1-13,7.7L464.46,455a17.83,17.83,0,0,1-9-15.51v-234A5.25,5.25,0,0,1,463.31,200.93Z"/><polygon class="cls-10" points="469.04 229.07 469.04 433.18 759.45 601.12 759.45 394.69 469.04 229.07"/><path class="cls-18" d="M260.71,561.71,443.34,456.29a14.23,14.23,0,0,1,14.12-.06L766,630.91a5.21,5.21,0,0,1,.09,9L583.49,748.65a18.9,18.9,0,0,1-19,.17L260.74,575.17A7.76,7.76,0,0,1,260.71,561.71Z"/><path class="cls-10" d="M357.33,530.05l279.74,164.2a13.52,13.52,0,0,0,13.8-.07l88.09-53a6.78,6.78,0,0,0-.14-11.71l-282-160.68a10.22,10.22,0,0,0-10.36.13l-89.15,53.89A4.2,4.2,0,0,0,357.33,530.05Z"/><path class="cls-16" d="M435.22,388.86l100,58.23a12.58,12.58,0,0,0,12.39.15l36.14-19.9v-12l-38.57,21.59a7.59,7.59,0,0,1-7.56-.09L435.22,376.42Z"/><path class="cls-10" d="M583.73,414.9,479.15,358.14l-43.93,18.28,102.34,60.66a9,9,0,0,0,9.13,0Z"/><polygon class="cls-19" points="501.44 369.98 477.93 386.12 477.93 331.73 501.89 320.3 501.44 369.98"/><polygon class="cls-20" points="455.44 320.3 455.44 373.95 477.93 386.12 477.93 331.73 455.44 320.3"/><polygon class="cls-21" points="479.77 308.5 455.44 320.3 477.93 331.73 502.99 320.3 479.77 308.5"/><polygon class="cls-22" points="531.7 386.03 508.19 402.17 508.19 323.46 532.15 312.04 531.7 386.03"/><polygon class="cls-2" points="485.7 312.04 485.7 390.01 508.19 402.17 508.19 323.46 485.7 312.04"/><polygon class="cls-23" points="510.03 300.24 485.7 312.04 508.19 323.46 533.25 312.04 510.03 300.24"/><path class="cls-11" d="M376.81,616.1l47.4-28.89a9.31,9.31,0,0,1,9.53-.1l78.79,45.95a5,5,0,0,1,.14,8.57l-45.62,28.78a10,10,0,0,1-10.35.19l-79.8-46.21A4.83,4.83,0,0,1,376.81,616.1Z"/><path class="cls-10" d="M380.22,618.38l45.47-27.73a8.94,8.94,0,0,1,9.14-.09l75.59,44.08a4.81,4.81,0,0,1,.14,8.22l-43.77,27.61a9.61,9.61,0,0,1-9.92.19l-76.56-44.34A4.62,4.62,0,0,1,380.22,618.38Z"/><polygon class="cls-24" points="566.15 405.65 541.35 422.68 541.35 281.56 566.62 269.5 566.15 405.65"/><polygon class="cls-25" points="517.64 269.5 517.64 409.85 541.35 422.68 541.35 281.56 517.64 269.5"/><polygon class="cls-26" points="543.3 257.06 517.64 269.5 541.35 281.56 567.79 269.5 543.3 257.06"/><path class="cls-11" d="M441.83,484.07l11.6-7.19a1.3,1.3,0,0,1,1.36,0l11.46,6.8a1.36,1.36,0,0,1,.06,2.28l-10,6.77a3.93,3.93,0,0,1-4.29.07l-10.19-6.41A1.36,1.36,0,0,1,441.83,484.07Z"/><path class="cls-11" d="M461,495.05l11.6-7.19a1.3,1.3,0,0,1,1.36,0l11.46,6.8a1.36,1.36,0,0,1,.07,2.28l-10,6.77a3.91,3.91,0,0,1-4.28.07L461,497.35A1.36,1.36,0,0,1,461,495.05Z"/><path class="cls-11" d="M480.22,506l11.59-7.19a1.3,1.3,0,0,1,1.36,0l11.46,6.8a1.36,1.36,0,0,1,.07,2.28l-10,6.77a3.91,3.91,0,0,1-4.28.07l-10.2-6.41A1.36,1.36,0,0,1,480.22,506Z"/><path class="cls-11" d="M499.41,517,511,509.82a1.33,1.33,0,0,1,1.36,0l11.46,6.8a1.36,1.36,0,0,1,.07,2.28l-10,6.77a3.91,3.91,0,0,1-4.28.07l-10.2-6.41A1.36,1.36,0,0,1,499.41,517Z"/><path class="cls-11" d="M518.6,528l11.6-7.2a1.29,1.29,0,0,1,1.35,0L543,527.58a1.36,1.36,0,0,1,.07,2.28l-10,6.77a3.91,3.91,0,0,1-4.28.07l-10.2-6.41A1.35,1.35,0,0,1,518.6,528Z"/><path class="cls-11" d="M537.79,539l11.6-7.2a1.29,1.29,0,0,1,1.35,0l11.46,6.79a1.36,1.36,0,0,1,.07,2.29l-10,6.76a3.91,3.91,0,0,1-4.28.07l-10.2-6.41A1.36,1.36,0,0,1,537.79,539Z"/><path class="cls-11" d="M557,550l11.6-7.2a1.3,1.3,0,0,1,1.36,0l11.45,6.79a1.36,1.36,0,0,1,.07,2.29l-10,6.76a3.93,3.93,0,0,1-4.29.07L557,552.25A1.36,1.36,0,0,1,557,550Z"/><path class="cls-11" d="M576.17,560.94l11.6-7.2a1.3,1.3,0,0,1,1.36,0l11.45,6.79a1.36,1.36,0,0,1,.07,2.29l-10,6.76a3.93,3.93,0,0,1-4.29.07l-10.2-6.41A1.36,1.36,0,0,1,576.17,560.94Z"/><path class="cls-11" d="M595.36,571.92l11.6-7.2a1.3,1.3,0,0,1,1.36,0l11.46,6.79a1.36,1.36,0,0,1,.06,2.29l-10,6.76a3.93,3.93,0,0,1-4.29.07l-10.19-6.41A1.36,1.36,0,0,1,595.36,571.92Z"/><path class="cls-11" d="M614.55,582.9l11.6-7.2a1.3,1.3,0,0,1,1.36,0l11.46,6.8a1.36,1.36,0,0,1,.06,2.28l-10,6.76a3.93,3.93,0,0,1-4.29.07l-10.19-6.41A1.36,1.36,0,0,1,614.55,582.9Z"/><path class="cls-11" d="M633.74,593.88l11.6-7.2a1.3,1.3,0,0,1,1.36,0l11.46,6.8a1.36,1.36,0,0,1,.06,2.28l-10,6.76a3.93,3.93,0,0,1-4.29.07l-10.19-6.41A1.36,1.36,0,0,1,633.74,593.88Z"/><path class="cls-11" d="M652.93,604.86l11.6-7.2a1.33,1.33,0,0,1,1.36,0l11.46,6.8a1.36,1.36,0,0,1,.06,2.28l-10,6.76a3.91,3.91,0,0,1-4.29.07l-10.19-6.41A1.36,1.36,0,0,1,652.93,604.86Z"/><path class="cls-11" d="M672.12,615.84l11.6-7.2a1.33,1.33,0,0,1,1.36,0l11.46,6.8a1.36,1.36,0,0,1,.07,2.28l-10,6.76a3.89,3.89,0,0,1-4.28.07l-10.2-6.41A1.36,1.36,0,0,1,672.12,615.84Z"/><path class="cls-11" d="M691.32,626.82l11.59-7.2a1.33,1.33,0,0,1,1.36,0l11.46,6.8a1.36,1.36,0,0,1,.07,2.28l-10,6.76a3.89,3.89,0,0,1-4.28.07l-10.2-6.41A1.35,1.35,0,0,1,691.32,626.82Z"/><path class="cls-11" d="M424.91,495.65l11.6-7.19a1.3,1.3,0,0,1,1.36,0l11.46,6.8a1.36,1.36,0,0,1,.06,2.28l-10,6.77a3.93,3.93,0,0,1-4.29.07l-10.19-6.42A1.36,1.36,0,0,1,424.91,495.65Z"/><path class="cls-11" d="M444.1,506.63l11.6-7.19a1.3,1.3,0,0,1,1.36,0l11.46,6.8a1.36,1.36,0,0,1,.06,2.28l-10,6.77a3.93,3.93,0,0,1-4.29.07l-10.19-6.41A1.36,1.36,0,0,1,444.1,506.63Z"/><path class="cls-11" d="M463.29,517.61l11.6-7.19a1.3,1.3,0,0,1,1.36,0l11.46,6.8a1.36,1.36,0,0,1,.06,2.28l-10,6.77a3.93,3.93,0,0,1-4.29.07l-10.19-6.41A1.36,1.36,0,0,1,463.29,517.61Z"/><path class="cls-11" d="M482.48,528.59l11.6-7.19a1.3,1.3,0,0,1,1.36,0l11.46,6.8a1.36,1.36,0,0,1,.07,2.28l-10,6.77a3.91,3.91,0,0,1-4.28.07l-10.2-6.41A1.36,1.36,0,0,1,482.48,528.59Z"/><path class="cls-11" d="M501.68,539.57l11.59-7.19a1.33,1.33,0,0,1,1.36,0l11.46,6.8a1.36,1.36,0,0,1,.07,2.28l-10,6.77a3.91,3.91,0,0,1-4.28.07l-10.2-6.41A1.36,1.36,0,0,1,501.68,539.57Z"/><path class="cls-11" d="M520.87,550.55l11.59-7.19a1.3,1.3,0,0,1,1.36,0l11.46,6.79a1.36,1.36,0,0,1,.07,2.28l-10,6.77a3.91,3.91,0,0,1-4.28.07l-10.2-6.41A1.36,1.36,0,0,1,520.87,550.55Z"/><path class="cls-11" d="M540.06,561.54l11.6-7.2a1.29,1.29,0,0,1,1.35,0l11.46,6.79a1.36,1.36,0,0,1,.07,2.29l-10,6.76a3.91,3.91,0,0,1-4.28.07l-10.2-6.41A1.35,1.35,0,0,1,540.06,561.54Z"/><path class="cls-11" d="M559.25,572.52l11.6-7.2a1.29,1.29,0,0,1,1.35,0l11.46,6.79a1.36,1.36,0,0,1,.07,2.29l-10,6.76a3.91,3.91,0,0,1-4.28.07l-10.2-6.41A1.36,1.36,0,0,1,559.25,572.52Z"/><path class="cls-11" d="M578.44,583.5l11.6-7.2a1.29,1.29,0,0,1,1.35,0l11.46,6.79a1.36,1.36,0,0,1,.07,2.29l-10,6.76a3.91,3.91,0,0,1-4.28.07l-10.2-6.41A1.36,1.36,0,0,1,578.44,583.5Z"/><path class="cls-11" d="M597.63,594.48l11.6-7.2a1.3,1.3,0,0,1,1.36,0L622,594.06a1.36,1.36,0,0,1,.07,2.29l-10,6.76a3.93,3.93,0,0,1-4.29.07l-10.2-6.41A1.36,1.36,0,0,1,597.63,594.48Z"/><path class="cls-11" d="M616.82,605.46l11.6-7.2a1.3,1.3,0,0,1,1.36,0L641.23,605a1.36,1.36,0,0,1,.07,2.29l-10,6.76a3.93,3.93,0,0,1-4.29.07l-10.2-6.41A1.36,1.36,0,0,1,616.82,605.46Z"/><path class="cls-11" d="M636,616.44l11.6-7.2a1.3,1.3,0,0,1,1.36,0l11.46,6.8a1.36,1.36,0,0,1,.06,2.28l-10,6.76a3.93,3.93,0,0,1-4.29.07L636,618.73A1.36,1.36,0,0,1,636,616.44Z"/><path class="cls-11" d="M655.2,627.42l11.6-7.2a1.3,1.3,0,0,1,1.36,0l11.46,6.8a1.36,1.36,0,0,1,.06,2.28l-10,6.76a3.91,3.91,0,0,1-4.29.07l-10.19-6.41A1.36,1.36,0,0,1,655.2,627.42Z"/><path class="cls-11" d="M674.39,638.4l11.6-7.2a1.33,1.33,0,0,1,1.36,0l11.46,6.8a1.36,1.36,0,0,1,.06,2.28l-10,6.76a3.91,3.91,0,0,1-4.29.07l-10.19-6.41A1.36,1.36,0,0,1,674.39,638.4Z"/><path class="cls-11" d="M408,507.23l11.6-7.19a1.3,1.3,0,0,1,1.36,0l11.45,6.8a1.35,1.35,0,0,1,.07,2.28l-10,6.76a3.91,3.91,0,0,1-4.29.08L408,509.52A1.36,1.36,0,0,1,408,507.23Z"/><path class="cls-11" d="M427.18,518.21l11.6-7.19a1.3,1.3,0,0,1,1.36,0l11.45,6.8a1.35,1.35,0,0,1,.07,2.28l-10,6.77a3.93,3.93,0,0,1-4.29.07l-10.2-6.42A1.36,1.36,0,0,1,427.18,518.21Z"/><path class="cls-11" d="M446.37,529.19,458,522a1.3,1.3,0,0,1,1.36,0l11.46,6.8a1.36,1.36,0,0,1,.06,2.28l-10,6.77a3.93,3.93,0,0,1-4.29.07l-10.19-6.41A1.36,1.36,0,0,1,446.37,529.19Z"/><path class="cls-11" d="M465.56,540.17l11.6-7.19a1.3,1.3,0,0,1,1.36,0l11.46,6.8A1.36,1.36,0,0,1,490,542l-10,6.77a3.93,3.93,0,0,1-4.29.07l-10.19-6.41A1.36,1.36,0,0,1,465.56,540.17Z"/><path class="cls-11" d="M484.75,551.15l11.6-7.19a1.3,1.3,0,0,1,1.36,0l11.46,6.8a1.36,1.36,0,0,1,.06,2.28l-10,6.77a3.93,3.93,0,0,1-4.29.07l-10.19-6.41A1.36,1.36,0,0,1,484.75,551.15Z"/><path class="cls-11" d="M503.94,562.13l11.6-7.19a1.3,1.3,0,0,1,1.36,0l11.46,6.8a1.36,1.36,0,0,1,.06,2.28l-10,6.77a3.93,3.93,0,0,1-4.29.07l-10.19-6.41A1.36,1.36,0,0,1,503.94,562.13Z"/><path class="cls-11" d="M523.13,573.11l11.6-7.19a1.3,1.3,0,0,1,1.36,0l11.46,6.79a1.36,1.36,0,0,1,.07,2.28l-10,6.77a3.91,3.91,0,0,1-4.28.07l-10.2-6.41A1.36,1.36,0,0,1,523.13,573.11Z"/><path class="cls-11" d="M542.33,584.1l11.59-7.2a1.3,1.3,0,0,1,1.36,0l11.46,6.79a1.36,1.36,0,0,1,.07,2.29l-10,6.76a3.91,3.91,0,0,1-4.28.07l-10.2-6.41A1.35,1.35,0,0,1,542.33,584.1Z"/><path class="cls-11" d="M561.52,595.08l11.59-7.2a1.3,1.3,0,0,1,1.36,0l11.46,6.79A1.36,1.36,0,0,1,586,597l-10,6.76a3.91,3.91,0,0,1-4.28.07l-10.2-6.41A1.35,1.35,0,0,1,561.52,595.08Z"/><path class="cls-11" d="M580.71,606.06l11.6-7.2a1.29,1.29,0,0,1,1.35,0l11.46,6.79a1.36,1.36,0,0,1,.07,2.29l-10,6.76a3.91,3.91,0,0,1-4.28.07l-10.2-6.41A1.35,1.35,0,0,1,580.71,606.06Z"/><path class="cls-11" d="M599.9,617l11.6-7.2a1.29,1.29,0,0,1,1.35,0l11.46,6.79a1.37,1.37,0,0,1,.07,2.29l-10,6.76a3.91,3.91,0,0,1-4.28.07l-10.2-6.41A1.36,1.36,0,0,1,599.9,617Z"/><path class="cls-11" d="M619.09,628l11.6-7.2a1.3,1.3,0,0,1,1.36,0l11.45,6.79a1.36,1.36,0,0,1,.07,2.29l-10,6.76a3.93,3.93,0,0,1-4.29.07l-10.2-6.41A1.36,1.36,0,0,1,619.09,628Z"/><path class="cls-11" d="M638.28,639l11.6-7.2a1.3,1.3,0,0,1,1.36,0l11.45,6.8a1.35,1.35,0,0,1,.07,2.28l-10,6.76a3.93,3.93,0,0,1-4.29.07l-10.2-6.41A1.36,1.36,0,0,1,638.28,639Z"/><path class="cls-11" d="M657.47,650l11.6-7.2a1.3,1.3,0,0,1,1.36,0l11.45,6.8a1.35,1.35,0,0,1,.07,2.28l-10,6.76a3.91,3.91,0,0,1-4.29.07l-10.2-6.41A1.36,1.36,0,0,1,657.47,650Z"/><path class="cls-11" d="M391.07,518.81l11.6-7.2a1.31,1.31,0,0,1,1.35,0l11.46,6.8a1.36,1.36,0,0,1,.07,2.28l-10,6.76a3.89,3.89,0,0,1-4.28.07l-10.2-6.41A1.35,1.35,0,0,1,391.07,518.81Z"/><path class="cls-11" d="M410.26,529.79l11.6-7.2a1.31,1.31,0,0,1,1.35,0l11.46,6.8a1.36,1.36,0,0,1,.07,2.28l-10,6.76a3.89,3.89,0,0,1-4.28.08l-10.2-6.42A1.36,1.36,0,0,1,410.26,529.79Z"/><path class="cls-11" d="M429.45,540.77l11.6-7.19a1.3,1.3,0,0,1,1.36,0l11.45,6.8a1.35,1.35,0,0,1,.07,2.28l-10,6.76a3.89,3.89,0,0,1-4.28.08l-10.2-6.42A1.36,1.36,0,0,1,429.45,540.77Z"/><path class="cls-11" d="M448.64,551.75l11.6-7.19a1.3,1.3,0,0,1,1.36,0l11.45,6.8a1.35,1.35,0,0,1,.07,2.28l-10,6.77a3.93,3.93,0,0,1-4.29.07l-10.2-6.41A1.36,1.36,0,0,1,448.64,551.75Z"/><path class="cls-11" d="M467.83,562.73l11.6-7.19a1.3,1.3,0,0,1,1.36,0l11.45,6.8a1.35,1.35,0,0,1,.07,2.28l-10,6.77a3.93,3.93,0,0,1-4.29.07L467.82,565A1.36,1.36,0,0,1,467.83,562.73Z"/><path class="cls-11" d="M487,573.71l11.6-7.19a1.3,1.3,0,0,1,1.36,0l11.46,6.8a1.36,1.36,0,0,1,.06,2.28l-10,6.77a3.93,3.93,0,0,1-4.29.07L487,576A1.36,1.36,0,0,1,487,573.71Z"/><path class="cls-11" d="M506.21,584.69l11.6-7.19a1.3,1.3,0,0,1,1.36,0l11.46,6.8a1.36,1.36,0,0,1,.06,2.28l-10,6.77a3.93,3.93,0,0,1-4.29.07L506.21,587A1.36,1.36,0,0,1,506.21,584.69Z"/><path class="cls-11" d="M525.4,595.67l11.6-7.19a1.33,1.33,0,0,1,1.36,0l11.46,6.8a1.36,1.36,0,0,1,.06,2.28l-10,6.77a3.93,3.93,0,0,1-4.29.07L525.4,598A1.36,1.36,0,0,1,525.4,595.67Z"/><path class="cls-11" d="M544.59,606.66l11.6-7.2a1.3,1.3,0,0,1,1.36,0L569,606.24a1.36,1.36,0,0,1,.06,2.28l-10,6.77a3.93,3.93,0,0,1-4.29.07L544.59,609A1.36,1.36,0,0,1,544.59,606.66Z"/><path class="cls-11" d="M563.78,617.64l11.6-7.2a1.3,1.3,0,0,1,1.36,0l11.46,6.79a1.36,1.36,0,0,1,.07,2.29l-10,6.76a3.91,3.91,0,0,1-4.28.07l-10.2-6.41A1.36,1.36,0,0,1,563.78,617.64Z"/><path class="cls-11" d="M583,628.62l11.59-7.2a1.3,1.3,0,0,1,1.36,0l11.46,6.79a1.36,1.36,0,0,1,.07,2.29l-10,6.76a3.91,3.91,0,0,1-4.28.07L583,630.91A1.35,1.35,0,0,1,583,628.62Z"/><path class="cls-11" d="M602.17,639.6l11.6-7.2a1.29,1.29,0,0,1,1.35,0l11.46,6.79a1.37,1.37,0,0,1,.07,2.29l-10,6.76a3.91,3.91,0,0,1-4.28.07l-10.2-6.41A1.35,1.35,0,0,1,602.17,639.6Z"/><path class="cls-11" d="M621.36,650.58l11.6-7.2a1.29,1.29,0,0,1,1.35,0l11.46,6.79a1.37,1.37,0,0,1,.07,2.29l-10,6.76a3.91,3.91,0,0,1-4.28.07l-10.2-6.41A1.36,1.36,0,0,1,621.36,650.58Z"/><path class="cls-11" d="M640.55,661.56l11.6-7.2a1.29,1.29,0,0,1,1.35,0l11.46,6.8a1.36,1.36,0,0,1,.07,2.28l-10,6.76a3.91,3.91,0,0,1-4.28.07l-10.2-6.41A1.36,1.36,0,0,1,640.55,661.56Z"/><path class="cls-11" d="M374.14,530.39l11.6-7.2a1.33,1.33,0,0,1,1.36,0l11.46,6.8a1.36,1.36,0,0,1,.07,2.28l-10,6.76a3.89,3.89,0,0,1-4.28.07l-10.2-6.41A1.36,1.36,0,0,1,374.14,530.39Z"/><path class="cls-11" d="M393.34,541.37l11.59-7.2a1.33,1.33,0,0,1,1.36,0l11.46,6.8a1.36,1.36,0,0,1,.07,2.28l-10,6.76a3.89,3.89,0,0,1-4.28.07l-10.2-6.41A1.35,1.35,0,0,1,393.34,541.37Z"/><path class="cls-11" d="M412.53,552.35l11.59-7.2a1.33,1.33,0,0,1,1.36,0l11.46,6.8a1.36,1.36,0,0,1,.07,2.28L427,561a3.91,3.91,0,0,1-4.28.08l-10.2-6.42A1.35,1.35,0,0,1,412.53,552.35Z"/><path class="cls-11" d="M431.72,563.33l11.6-7.19a1.29,1.29,0,0,1,1.35,0l11.46,6.8a1.36,1.36,0,0,1,.07,2.28l-10,6.76a3.89,3.89,0,0,1-4.28.08l-10.2-6.42A1.35,1.35,0,0,1,431.72,563.33Z"/><path class="cls-11" d="M450.91,574.31l11.6-7.19a1.29,1.29,0,0,1,1.35,0l11.46,6.8a1.36,1.36,0,0,1,.07,2.28l-10,6.77a3.91,3.91,0,0,1-4.28.07l-10.2-6.42A1.36,1.36,0,0,1,450.91,574.31Z"/><path class="cls-11" d="M470.1,585.29l11.6-7.19a1.3,1.3,0,0,1,1.36,0l11.45,6.8a1.35,1.35,0,0,1,.07,2.28l-10,6.77a3.93,3.93,0,0,1-4.29.07l-10.2-6.41A1.36,1.36,0,0,1,470.1,585.29Z"/><path class="cls-11" d="M489.29,596.27l11.6-7.19a1.3,1.3,0,0,1,1.36,0l11.45,6.8a1.35,1.35,0,0,1,.07,2.28l-10,6.77a3.93,3.93,0,0,1-4.29.07l-10.2-6.41A1.36,1.36,0,0,1,489.29,596.27Z"/><path class="cls-11" d="M508.48,607.25l11.6-7.19a1.3,1.3,0,0,1,1.36,0l11.46,6.8a1.36,1.36,0,0,1,.06,2.28l-10,6.77a3.93,3.93,0,0,1-4.29.07l-10.2-6.41A1.37,1.37,0,0,1,508.48,607.25Z"/><path class="cls-11" d="M527.67,618.23l11.6-7.19a1.33,1.33,0,0,1,1.36,0l11.46,6.8a1.36,1.36,0,0,1,.06,2.28l-10,6.77a3.93,3.93,0,0,1-4.29.07l-10.19-6.41A1.36,1.36,0,0,1,527.67,618.23Z"/><path class="cls-11" d="M546.86,629.21l11.6-7.19a1.3,1.3,0,0,1,1.36,0l11.46,6.79a1.36,1.36,0,0,1,.06,2.28l-10,6.77a3.93,3.93,0,0,1-4.29.07l-10.19-6.41A1.36,1.36,0,0,1,546.86,629.21Z"/><path class="cls-11" d="M566.05,640.2l11.6-7.2a1.3,1.3,0,0,1,1.36,0l11.46,6.79a1.36,1.36,0,0,1,.06,2.29l-10,6.76a3.93,3.93,0,0,1-4.29.07l-10.19-6.41A1.36,1.36,0,0,1,566.05,640.2Z"/><path class="cls-11" d="M585.24,651.18l11.6-7.2a1.3,1.3,0,0,1,1.36,0l11.46,6.79a1.37,1.37,0,0,1,.07,2.29l-10,6.76a3.91,3.91,0,0,1-4.28.07l-10.2-6.41A1.36,1.36,0,0,1,585.24,651.18Z"/><path class="cls-11" d="M604.44,662.16,616,655a1.3,1.3,0,0,1,1.36,0l11.46,6.79a1.37,1.37,0,0,1,.07,2.29l-10,6.76a3.91,3.91,0,0,1-4.28.07l-10.2-6.41A1.35,1.35,0,0,1,604.44,662.16Z"/><path class="cls-11" d="M623.63,673.14l11.59-7.2a1.3,1.3,0,0,1,1.36,0L648,672.72a1.37,1.37,0,0,1,.07,2.29l-10,6.76a3.91,3.91,0,0,1-4.28.07l-10.2-6.41A1.35,1.35,0,0,1,623.63,673.14Z"/><polygon class="cls-27" points="27.54 311.85 27.54 358.14 315.01 193.38 315.01 144.4 27.54 311.85"/><polygon class="cls-10" points="83.29 293.65 83.29 313.65 208.53 240.96 208.53 224.35 83.29 293.65"/><polygon class="cls-10" points="43.57 317.57 43.57 337.02 60.59 327.29 60.59 308.5 43.57 317.57"/><polygon class="cls-28" points="37.79 363.27 37.79 442.6 112.48 398.23 112.48 320.3 37.79 363.27"/><polygon class="cls-28" points="37.79 448.8 37.79 454.03 112.48 409.66 112.48 405.82 37.79 448.8"/><polygon class="cls-28" points="219.48 270.14 219.48 274.6 278.1 240.8 278.1 236.96 219.48 270.14"/><polygon class="cls-28" points="219.48 281.1 219.48 285.55 278.1 251.75 278.1 247.91 219.48 281.1"/><polygon class="cls-28" points="219.48 292.05 219.48 296.51 278.1 262.71 278.1 258.87 219.48 292.05"/><polygon class="cls-28" points="219.48 303 219.48 307.46 278.1 273.66 278.1 269.82 219.48 303"/><polygon class="cls-28" points="246.8 301.51 246.8 305.19 253.27 301.59 253.27 297.75 246.8 301.51"/><polygon class="cls-28" points="246.8 311.22 246.8 314.9 253.27 311.3 253.27 307.46 246.8 311.22"/><polygon class="cls-28" points="246.8 320.93 246.8 324.61 253.27 321.01 253.27 317.17 246.8 320.93"/><polygon class="cls-28" points="246.8 330.64 246.8 334.32 253.27 330.72 253.27 326.88 246.8 330.64"/><path class="cls-29" d="M213,316.62S226.3,328,211.67,364s-40.39,19.41-40.39,19.41-17.8-14.15-17.21-25.26S169.26,298.49,213,316.62Z"/><path class="cls-27" d="M133.36,359.81l37.92,23.59s-21.53-16.61-2.85-49.08c16.76-29.13,45.62-17.15,45.62-17.15L176.5,297.75s-22.45-6.89-39.11,20.79C124.36,340.2,133.36,359.81,133.36,359.81Z"/><polygon class="cls-10" points="184.4 430.44 184.4 592.8 315.01 515.94 317.93 357.11 184.4 430.44"/><path class="cls-30" d="M208.53,322.12s-28-2.62-38.85,27.8c0,0-7.08,25.83,17.3,37.08,0,0,34.16,19.1,33.54,18.82s0,23.82,0,23.82,1.87,9.79,12.5,9.58c0,0,6.87.21,7.29-3.54,0,0,6.25,8.13,17.71.21,0,0,9.37,4.58,15.41-4.79,0,0,9.23,4.37,15.34-5.63V374.92a14.87,14.87,0,0,0-7-13.33C276.12,357.87,208.53,322.12,208.53,322.12Z"/><polygon class="cls-28" points="208.53 484.88 208.53 493.38 292.66 444.61 292.66 435.8 208.53 484.88"/><polygon class="cls-28" points="208.53 509.07 208.53 512.94 246.8 490.75 246.8 486.74 208.53 509.07"/><polygon class="cls-28" points="208.53 517.42 208.53 521.29 246.8 499.1 246.8 495.09 208.53 517.42"/><polygon class="cls-28" points="208.53 525.77 208.53 529.64 246.8 507.45 246.8 503.44 208.53 525.77"/><polygon class="cls-28" points="276.74 521.55 276.74 523.92 300.21 510.31 300.21 507.85 276.74 521.55"/><path class="cls-16" d="M588.39,459.12v13.53l98.5,56.93a14.92,14.92,0,0,0,15.15-.14l49.17-29.6v-9.3Z"/><path class="cls-31" d="M591.27,455.39l48.07-24.95,111.87,60.1-50.34,28.88a12.67,12.67,0,0,1-12.49.08l-97.26-54.27A5.59,5.59,0,0,1,591.27,455.39Z"/><polygon class="cls-32" points="247.78 484.19 247.78 522.13 256.83 506.99 264.64 512.47 264.64 481.37 247.78 484.19"/><ellipse class="cls-2" cx="256.83" cy="472.8" rx="19.5" ry="15.18" transform="translate(-250.83 651.11) rotate(-80.84)"/><path class="cls-33" d="M630.31,419.21l-8.74,5.38A26.94,26.94,0,0,0,609,443.87l.61,11.07a15.43,15.43,0,0,0,7.73,12.53l57.93,33.21,11.38,1.75a41.3,41.3,0,0,0,30.14-7.14l7.58-5.38s3.26-32.19-11.34-45.52C689.63,423,676.53,413.43,630.31,419.21Z"/><path class="cls-10" d="M632.37,438.14A14.94,14.94,0,0,0,635,449.28a2.35,2.35,0,0,1,.66,1.51,2.45,2.45,0,0,1-.87,1.36,9.09,9.09,0,0,0,1.83,14.05,13.58,13.58,0,0,0,6.13,1.71,14.8,14.8,0,0,0,6.8-.84,7.94,7.94,0,0,0,4.68-4.77,46.22,46.22,0,0,0,25.15-.2,30.72,30.72,0,0,0,11-5.21,21.17,21.17,0,0,0,7.91-18.05,19.57,19.57,0,0,0-11.31-16c-3.87-1.69-8.19-2-12.41-2.07a119.94,119.94,0,0,0-26,2.46C640.91,424.84,633.72,429.93,632.37,438.14Z"/><path class="cls-34" d="M642.35,423.13V443s3.94,14.94,24.89,12.24,18.67-12.44,18.67-12.44V388.49L656.68,387l-7.9,12.45Z"/><path class="cls-35" d="M630.32,383v38.08s-1.24,17.21,21.57,14.31,22-11,22-11l2.9-46.67Z"/><path class="cls-36" d="M668.79,389.11s-25.28,14.08-43-2.17a18.72,18.72,0,0,0-7.95-10.11s-7.22-3.25,4.34-7.23,11.19-20.22,41.53-18.78S700.2,380.44,697,396.33s-13.36,24.19-13.36,15.17c0,0,3.48-4.06,2.39-11.64s-7.44-8.95-7.44-8.95l-.37,7.59-8.3,5.05Z"/><path class="cls-37" d="M639.65,453s-6.65,3.73-7.47,18.25S630.31,508,630.31,508l7.89,14.31,8.92-5.81-2.49-50s.42-4.42,3.74-5.74Z"/><rect class="cls-38" x="217.46" y="389.65" width="18.57" height="57.09" rx="9.28" ry="9.28"/><rect class="cls-39" x="236.51" y="383.51" width="18.57" height="61.84" rx="9.28" ry="9.28"/><rect class="cls-40" x="255.47" y="373.03" width="16.92" height="69.54" rx="8.46" ry="8.46"/><rect class="cls-41" x="272.9" y="366.58" width="16.92" height="70.23" rx="8.15" ry="8.15"/><path class="cls-42" d="M110.93,750.3,84.76,768.17a5.31,5.31,0,0,0,.3,9L287.31,895.72a23.32,23.32,0,0,0,23.6,0l152.68-89.79a7.18,7.18,0,0,0-.39-12.6l-11.75-6Z"/><path class="cls-43" d="M88.84,763.33l158.89-93.2s83.17,17.69,98.45,61.37L188.24,821.06S154.5,770.73,88.84,763.33Z"/><path class="cls-10" d="M93.84,771.3v-11s58.46,2.14,99.4,57.73v10.55Z"/><path class="cls-10" d="M202.72,833.91l96.39,55.65V875.32s-53.06-58.53-105.87-57.26v10.55Z"/><path class="cls-44" d="M299.11,889.56c5-.66,158.34-92.42,158.34-92.42V783.89L299.11,875.32Z"/><path class="cls-45" d="M457.45,783.89s-41-50.83-106.27-55.39c-2,1.15-156.08,89.56-156.08,89.56s45.05-3,104,57.26Z"/><path class="cls-10" d="M299.11,766.22s42.81,5.36,80.82,46.35l54-30.93s-42.11-45.1-85-44.35Z"/><path class="cls-10" d="M346.37,830.88c-11.13-14.85-29.89-25.41-34.74-28a1.37,1.37,0,0,1-.58-1.81h0a1.36,1.36,0,0,1,1.85-.61c5.06,2.66,24.05,13.28,35.64,28.76a1.36,1.36,0,0,1-.3,1.93h0A1.36,1.36,0,0,1,346.37,830.88Z"/><path class="cls-10" d="M357,824.34c-11.13-14.87-29.89-25.42-34.74-28a1.36,1.36,0,0,1-.58-1.8h0a1.35,1.35,0,0,1,1.85-.6c5.06,2.65,24,13.28,35.63,28.75a1.36,1.36,0,0,1-.3,1.93h0A1.36,1.36,0,0,1,357,824.34Z"/><path class="cls-10" d="M335.79,837.43c-11.14-14.86-29.89-25.42-34.74-28a1.35,1.35,0,0,1-.58-1.8h0a1.35,1.35,0,0,1,1.85-.61c5.06,2.66,24.05,13.28,35.63,28.75a1.37,1.37,0,0,1-.29,1.93h0A1.35,1.35,0,0,1,335.79,837.43Z"/><path class="cls-10" d="M325.2,844c-11.12-14.86-29.89-25.42-34.74-28a1.37,1.37,0,0,1-.58-1.8h0a1.36,1.36,0,0,1,1.85-.6c5.06,2.65,24.05,13.28,35.63,28.75a1.37,1.37,0,0,1-.29,1.93h0A1.37,1.37,0,0,1,325.2,844Z"/><path class="cls-10" d="M314.62,850.52c-11.12-14.85-29.89-25.41-34.74-28a1.37,1.37,0,0,1-.58-1.81h0a1.37,1.37,0,0,1,1.86-.61c5.06,2.66,24,13.28,35.63,28.76a1.36,1.36,0,0,1-.3,1.93h0A1.36,1.36,0,0,1,314.62,850.52Z"/><path class="cls-10" d="M304,857.07c-11.13-14.87-29.89-25.42-34.74-28a1.36,1.36,0,0,1-.58-1.8h0a1.36,1.36,0,0,1,1.85-.61c5.06,2.66,24.05,13.28,35.64,28.75a1.36,1.36,0,0,1-.3,1.93h0A1.35,1.35,0,0,1,304,857.07Z"/><g class="cls-46"><path class="cls-10" d="M322.11,783.47c-15.53-11.51-36.77-16.25-42.38-17.35a1.37,1.37,0,0,0-1.6,1.11h0a1.36,1.36,0,0,0,1.07,1.56c5.38,1.07,26.38,5.81,41.3,16.87a1.37,1.37,0,0,0,1.88-.27h0A1.37,1.37,0,0,0,322.11,783.47Z"/><path class="cls-10" d="M311.51,788.79c-15.53-11.5-36.77-16.24-42.38-17.34a1.35,1.35,0,0,0-1.6,1.11h0a1.37,1.37,0,0,0,1.07,1.56C274,775.2,295,779.94,309.9,791a1.36,1.36,0,0,0,1.88-.26h0A1.38,1.38,0,0,0,311.51,788.79Z"/><path class="cls-10" d="M300.91,794.12c-15.53-11.51-36.77-16.25-42.38-17.34a1.35,1.35,0,0,0-1.6,1.11h0a1.35,1.35,0,0,0,1.07,1.56c5.38,1.08,26.38,5.81,41.3,16.87a1.35,1.35,0,0,0,1.88-.27h0A1.37,1.37,0,0,0,300.91,794.12Z"/><path class="cls-10" d="M290.31,799.45c-15.53-11.51-36.77-16.25-42.38-17.35a1.37,1.37,0,0,0-1.6,1.11h0a1.37,1.37,0,0,0,1.07,1.56c5.38,1.07,26.38,5.81,41.3,16.86a1.36,1.36,0,0,0,1.88-.26h0A1.37,1.37,0,0,0,290.31,799.45Z"/><path class="cls-10" d="M279.71,804.77c-15.53-11.51-36.77-16.25-42.38-17.34a1.35,1.35,0,0,0-1.6,1.11h0a1.35,1.35,0,0,0,1.07,1.56c5.38,1.08,26.38,5.82,41.3,16.87a1.36,1.36,0,0,0,1.88-.26h0A1.38,1.38,0,0,0,279.71,804.77Z"/><path class="cls-10" d="M269.11,810.1c-15.53-11.51-36.77-16.25-42.38-17.35a1.37,1.37,0,0,0-1.6,1.11h0a1.36,1.36,0,0,0,1.07,1.56c5.38,1.07,26.38,5.81,41.3,16.87a1.37,1.37,0,0,0,1.88-.27h0A1.37,1.37,0,0,0,269.11,810.1Z"/><path class="cls-10" d="M258.51,815.42c-15.53-11.5-36.77-16.24-42.38-17.34a1.36,1.36,0,0,0-1.6,1.11h0a1.37,1.37,0,0,0,1.07,1.56c5.38,1.07,26.38,5.81,41.3,16.86a1.36,1.36,0,0,0,1.88-.26h0A1.38,1.38,0,0,0,258.51,815.42Z"/></g><path class="cls-2" d="M353.11,728.5l23.52,2.39L216,823.64s-19.22,7.29-20.87,34.45c0,0-4.31,5-7.62,5.63-4.31-3.64-9.81-9.26-6.63-24.84a35.78,35.78,0,0,1,14.25-20.82C239.4,786,353.11,728.5,353.11,728.5Z"/></g></g></svg>