<?xml version="1.0" encoding="UTF-8"?>
<svg width="446px" height="525px" viewBox="0 0 446 525" version="1.1" xmlns="http://www.w3.org/2000/svg" xmlns:xlink="http://www.w3.org/1999/xlink">
    <!-- Generator: Sketch 52.2 (67145) - http://www.bohemiancoding.com/sketch -->
    <title>Group 6</title>
    <desc>Created with Sketch.</desc>
    <defs>
        <path d="M1.9224,4.53694737 L8.785575,8.86523684 C7.6842,8.17034211 6.991425,6.60576316 7.0056,4.41805263 L0.142425,0.0897631579 C0.128025,2.27747368 0.821025,3.84228947 1.9224,4.53694737" id="path-1"></path>
        <path d="M0.1603125,0.50232 L7.3096875,4.88832 C10.1460938,4.236 12.6925781,4.60944 14.7827344,5.89152 L7.63359375,1.50576 C6.2203125,0.63888 4.59890625,0.18744 2.82,0.18744 C1.9678125,0.18744 1.0790625,0.29112 0.1603125,0.50232" id="path-3"></path>
        <path d="M4.10876667,0.428603774 C1.9544,1.56475472 0.0532,4.98022642 0.0333666667,7.74611321 L7.15096667,11.8838491 C7.1708,9.11773585 9.07223333,5.70226415 11.2261333,4.56633962 C12.1914333,4.05713208 13.0993333,4.06301887 13.8054,4.47350943 L6.6878,0.336 C6.35156667,0.140377358 5.96936667,0.0364528302 5.55706667,0.0366792453 C5.10393333,0.0366792453 4.61416667,0.162113208 4.10876667,0.428603774" id="path-5"></path>
        <path d="M0.158444444,29.7201633 L6.93688889,33.947034 C7.00955556,22.9941769 12.4524444,11.116381 19.9053333,4.43665306 L13.1264444,0.210013605 C5.674,6.8895102 0.230888889,18.7673061 0.158444444,29.7201633" id="path-7"></path>
    </defs>
    <g id="Page-1" stroke="none" stroke-width="1" fill="none" fill-rule="evenodd">
        <g id="Students" transform="translate(-210.000000, -783.000000)">
            <g id="Group-6" transform="translate(210.000000, 783.000000)">
                <circle id="Oval" fill="#DAECFF" fill-rule="nonzero" cx="223" cy="263" r="223"></circle>
                <g id="Group-117" transform="translate(17.000000, 0.000000)">
                    <g id="Group-79">
                        <path d="M284.219679,431.948535 L128.040683,521.796322 C123.066678,524.657732 117.041168,525.042922 111.777901,522.835621 L81.4657147,510.124354 C77.9090431,508.632866 77.6455349,503.739135 81.0191763,501.82677 L240.063422,411.672535 L283.003081,422.702366 C287.398334,423.831458 288.167475,429.677457 284.219679,431.948535" id="Fill-1" fill="#D8D8D8"></path>
                        <path d="M291.437345,14.8759276 L291.437345,392.627716 L111.132858,503.425412 L87.6233692,491.740781 C87.6233692,491.740781 85.1476332,489.599328 85.1476332,483.417871 L85.1476332,110.501102 C85.1476332,104.472754 88.3869912,98.9106394 93.6268046,95.9419374 L259.322449,1.66849617 C259.322449,1.66849617 263.632856,-1.62990811 270.049949,1.66849617 C276.467271,4.96690045 291.437345,14.8759276 291.437345,14.8759276" id="Fill-3" fill="#6C6289"></path>
                        <path d="M106.534961,129.008843 L106.534961,496.542853 C106.534961,502.279028 112.740741,505.860397 117.697502,502.984941 L282.887284,407.158998 C289.451537,403.351305 293.492687,396.330397 293.492687,388.73412 L293.492687,20.2913567 C293.492687,14.7785135 287.556853,11.3124952 282.765187,14.0272436 L119.692898,106.416178 C111.561852,111.023031 106.534961,119.654001 106.534961,129.008843" id="Fill-5" fill="#BDB5E5"></path>
                        <path d="M293.492733,40.8308881 L293.492733,20.2914949 C293.492733,14.7786516 287.556899,11.3126334 282.765233,14.0271515 L119.692944,106.416086 C111.561898,111.022939 106.535007,119.654139 106.535007,129.008751 L106.535007,149.408619 L293.492733,40.8308881 Z" id="Fill-7" fill="#7D74A3"></path>
                        <path d="M106.534961,488.628939 L106.534961,496.542946 C106.534961,502.279121 112.740741,505.860489 117.697502,502.985033 L282.887514,407.15886 C289.451537,403.351167 293.492687,396.330258 293.492687,388.734212 L293.492687,382.583147 L106.534961,488.628939 Z" id="Fill-9" fill="#7D74A3"></path>
                        <path d="M144.266583,118.190073 C142.808321,121.09661 140.175997,122.723018 138.386854,121.823014 C136.597712,120.92301 136.329375,117.837577 137.787638,114.931039 C139.245901,112.024732 141.878224,110.398093 143.667367,111.298098 C145.45651,112.198332 145.724846,115.283765 144.266583,118.190073" id="Fill-11" fill="#6C6289"></path>
                        <path d="M154.452603,111.318197 C153.416735,113.383211 151.546424,114.538551 150.27533,113.899407 C149.004237,113.260033 148.813618,111.067697 149.849486,109.002684 C150.885584,106.9379 152.755665,105.78233 154.026759,106.421704 C155.298083,107.061078 155.488701,109.253414 154.452603,111.318197" id="Fill-13" fill="#6C6289"></path>
                        <path d="M219.769976,77.6727239 L193.638511,92.6306627 C191.880639,93.6370375 189.898579,93.0464744 189.211526,91.3118536 C188.524473,89.5772328 189.392487,87.3554262 191.150128,86.3490514 L217.281823,71.3911126 C219.039465,70.3847378 221.021755,70.9753009 221.708808,72.7096915 C222.395861,74.4445426 221.527847,76.6663492 219.769976,77.6727239" id="Fill-15" fill="#6C6289"></path>
                        <polygon id="Fill-17" fill="#FFFFFF" points="129.092279 178.653903 129.092279 168.065901 276.728411 84.7269714 276.728411 94.087339"></polygon>
                        <polygon id="Fill-19" fill="#FFFFFF" points="129.092279 198.221964 129.092279 187.633962 276.728411 104.295032 276.728411 113.6554"></polygon>
                        <polygon id="Fill-21" fill="#FFFFFF" points="129.092279 215.029205 129.092279 204.441203 255.483346 133.465649 255.483346 142.826017"></polygon>
                        <polygon id="Fill-23" fill="#FFFFFF" points="129.3224 240.226426 129.3224 229.638424 276.958532 146.299495 276.958532 155.659862"></polygon>
                        <polygon id="Fill-25" fill="#FFFFFF" points="129.3224 259.79451 129.3224 249.206508 276.958532 165.867579 276.958532 175.227946"></polygon>
                        <polygon id="Fill-27" fill="#FFFFFF" points="129.3224 276.601729 129.3224 266.013727 255.713467 195.038172 255.713467 204.39854"></polygon>
                        <path d="M400.626497,149.62311 L400.626497,206.191918 C400.626497,210.353028 398.404382,214.196178 394.800803,216.268099 L212.125661,321.292321 C209.395154,322.862321 205.990242,320.888251 205.990242,317.735588 L205.990242,263.758351 C205.990242,259.449198 208.285936,255.467444 212.012762,253.312637 L395.989809,146.942667 C397.010961,146.352335 398.159038,146.420255 399.056944,146.929083 C399.588099,147.229776 402.825848,149.762405 402.825848,149.762405 C402.825848,149.762405 400.626497,149.119577 400.626497,149.62311" id="Fill-29" fill="#A9D1EA"></path>
                        <polygon id="Fill-31" fill="#A9D1EA" points="207.700723 321.067538 210.802578 323.354042 210.802578 314.898744"></polygon>
                        <path d="M403.819246,151.974058 L403.819246,208.542865 C403.819246,212.703975 401.597131,216.547125 397.993552,218.619046 L215.318411,323.643268 C212.587904,325.213268 209.182991,323.239429 209.182991,320.086536 L209.182991,266.109299 C209.182991,261.800145 211.478686,257.818392 215.205511,255.663584 L399.182559,149.293615 C401.243258,148.102358 403.819246,149.591314 403.819246,151.974058" id="Fill-33" fill="#E9FFFF"></path>
                        <path d="M263.129431,242.567266 L263.129431,280.439284 C263.129431,284.701699 260.853281,288.638786 257.161636,290.760899 L222.467532,310.707427 C220.409592,311.890625 217.843261,310.403051 217.843261,308.026754 L217.843261,268.609603 C217.843261,265.294161 219.60964,262.2306 222.47696,260.572879 L258.373866,239.818443 C260.48745,238.596334 263.129431,240.12374 263.129431,242.567266" id="Fill-35" fill="#A9D1EA"></path>
                        <path d="M234.592062,279.766825 C234.592062,279.766825 228.79695,284.57859 226.676927,294.202581 L225.546095,298.165225 C225.546095,298.165225 224.415493,301.561941 228.79695,298.87298 C233.178637,296.184018 253.107771,284.861784 253.107771,284.861784 C253.107771,284.861784 256.076032,283.588102 254.662607,279.766825 L251.835757,273.822744 L245.899463,273.822744 C245.899463,273.822744 241.235183,280.615946 234.592062,279.766825" id="Fill-37" fill="#FFFFFF"></path>
                        <path d="M246.375043,269.164156 C244.434601,274.870631 240.080277,278.548469 236.649151,277.378854 C233.218025,276.20901 232.009704,270.634693 233.950146,264.928219 C235.890587,259.221514 240.244912,255.543906 243.676038,256.71352 C247.107163,257.883365 248.315484,263.457682 246.375043,269.164156" id="Fill-39" fill="#FFFFFF"></path>
                        <polygon id="Fill-41" fill="#A9D1EA" points="271.099544 247.58307 271.099544 239.388172 385.367391 174.885558 385.367391 182.130259"></polygon>
                        <polygon id="Fill-43" fill="#A9D1EA" points="271.099544 262.728469 271.099544 254.533341 385.367391 190.030727 385.367391 197.275658"></polygon>
                        <polygon id="Fill-45" fill="#A9D1EA" points="271.099544 275.736974 271.099544 267.542076 368.923878 212.608426 368.923878 219.853127"></polygon>
                        <path d="M126.743354,116.469358 L126.743354,153.305991 C126.743354,156.015443 125.296358,158.518142 122.949617,159.867342 L3.9951852,228.257082 C2.21707934,229.279343 2.29937393e-05,227.994149 2.29937393e-05,225.941108 L2.29937393e-05,190.792127 C2.29937393e-05,187.985974 1.49484599,185.393022 3.92160524,183.990176 L123.724046,114.723916 C124.389025,114.339417 125.136551,114.383623 125.721282,114.715167 C126.067338,114.91087 128.175634,116.560303 128.175634,116.560303 C128.175634,116.560303 126.743354,116.141498 126.743354,116.469358" id="Fill-47" fill="#A9D1EA"></path>
                        <polygon id="Fill-49" fill="#A9D1EA" points="1.11381673 228.110765 3.1335868 229.599491 3.1335868 224.093785"></polygon>
                        <path d="M128.822448,118.00031 L128.822448,154.836942 C128.822448,157.546395 127.375452,160.049093 125.028711,161.398063 L6.07427911,229.788033 C4.29617325,230.810295 2.0791169,229.5251 2.0791169,227.472059 L2.0791169,192.323079 C2.0791169,189.516925 3.5739399,186.923974 6.00069915,185.521127 L125.80314,116.254867 C127.145054,115.479192 128.822448,116.448959 128.822448,118.00031" id="Fill-51" fill="#E9FFFF"></path>
                        <path d="M37.2079401,176.992982 L37.2079401,201.654344 C37.2079401,204.429876 35.7257637,206.993587 33.3217682,208.375712 L10.7297295,221.364416 C9.38942447,222.134796 7.71846944,221.166181 7.71846944,219.618744 L7.71846944,193.951007 C7.71846944,191.792055 8.86861628,189.797264 10.7359378,188.717674 L34.1111433,175.202873 C35.4875485,174.407167 37.2079401,175.401569 37.2079401,176.992982" id="Fill-53" fill="#A9D1EA"></path>
                        <path d="M18.6249289,201.216429 C18.6249289,201.216429 14.8511964,204.349752 13.4706522,210.616859 L12.7343927,213.197147 C12.7343927,213.197147 11.9981332,215.409284 14.8511964,213.658086 C17.7044895,211.907118 30.6821559,204.534174 30.6821559,204.534174 C30.6821559,204.534174 32.6150097,203.704853 31.6945703,201.216429 L29.8536915,197.345651 L25.9879841,197.345651 C25.9879841,197.345651 22.950741,201.769233 18.6249289,201.216429" id="Fill-55" fill="#FFFFFF"></path>
                        <path d="M26.2978017,194.312183 C25.0342957,198.028241 22.1987078,200.423187 19.9644061,199.661326 C17.7303344,198.899695 16.9432587,195.269747 18.2067647,191.553919 C19.4705006,187.837861 22.3058586,185.442915 24.5401603,186.204546 C26.7744619,186.966407 27.5613077,190.596125 26.2978017,194.312183" id="Fill-57" fill="#FFFFFF"></path>
                        <polygon id="Fill-59" fill="#A9D1EA" points="42.397926 180.25906 42.397926 174.92258 116.806816 132.919844 116.806816 137.637442"></polygon>
                        <polygon id="Fill-61" fill="#A9D1EA" points="42.397926 190.121556 42.397926 184.785076 116.806816 142.78211 116.806816 147.499708"></polygon>
                        <polygon id="Fill-63" fill="#A9D1EA" points="42.397926 198.59228 42.397926 193.2558 106.099322 157.484253 106.099322 162.201851"></polygon>
                        <path d="M192.864656,361.276183 L192.864656,409.131364 C192.864656,412.651258 190.984688,415.902464 187.936178,417.655043 L33.4007747,506.50129 C31.0908237,507.829309 28.210398,506.159615 28.210398,503.492296 L28.210398,457.829681 C28.210398,454.184537 30.1524492,450.81614 33.3051208,448.993337 L188.942154,359.008789 C189.806029,358.50917 190.777285,358.566499 191.536998,358.997277 C191.986296,359.251691 194.72531,361.394295 194.72531,361.394295 C194.72531,361.394295 192.864656,360.85024 192.864656,361.276183" id="Fill-65" fill="#E0B707"></path>
                        <polygon id="Fill-67" fill="#A9D1EA" points="29.65744 506.311251 32.2814855 508.245258 32.2814855 501.092653"></polygon>
                        <path d="M195.565593,363.265125 L195.565593,411.120077 C195.565593,414.639971 193.685855,417.891176 190.637115,419.643986 L36.1017113,508.490233 C33.7917603,509.818021 30.9113345,508.148328 30.9113345,505.481239 L30.9113345,459.818624 C30.9113345,456.173249 32.8536157,452.804852 36.0060574,450.98205 L191.643091,360.997501 C193.386476,359.989515 195.565593,361.249383 195.565593,363.265125" id="Fill-69" fill="#FFD30F"></path>
                        <polygon id="Fill-71" fill="#FFFFFF" points="83.290222 444.146253 83.290222 437.213756 179.956132 382.647107 179.956132 388.77607"></polygon>
                        <polygon id="Fill-73" fill="#FFFFFF" points="83.290222 456.95871 83.290222 450.026213 179.956132 395.459563 179.956132 401.588296"></polygon>
                        <polygon id="Fill-75" fill="#FFFFFF" points="83.290222 467.963398 83.290222 461.030901 166.04561 414.559226 166.04561 420.687959"></polygon>
                        <path d="M335.719493,366.1791 L328.705713,361.971712 C327.580169,361.296421 326.871962,359.775231 326.886448,357.648513 L333.900459,361.856132 C333.885743,363.982619 334.59395,365.503809 335.719493,366.1791" id="Fill-77" fill="#FFB20F"></path>
                    </g>
                    <g id="Group-82" transform="translate(326.000000, 357.000000)">
                        <mask id="mask-2" fill="white">
                            <use xlink:href="#path-1"></use>
                        </mask>
                        <g id="Clip-81"></g>
                        <path d="M8.785665,8.86504737 L1.92249,4.53699474 C0.821115,3.84233684 0.128115,2.27752105 0.14229,0.0898105263 L7.00569,4.4181 C6.99129,6.60557368 7.68429,8.17038947 8.785665,8.86504737" id="Fill-80" fill="#FF933D" mask="url(#mask-2)"></path>
                    </g>
                    <g id="Group-91" transform="translate(309.000000, 297.000000)">
                        <polygon id="Fill-83" fill="#FF933D" points="24.6284055 64.9658703 17.5501293 60.7805348 28.2594331 55.0350316 35.3377094 59.2203671"></polygon>
                        <polygon id="Fill-85" fill="#FF933D" points="7.27398232 67.3067403 0.195706077 63.1214048 5.59978343 53.2512597 12.6780597 57.4365952"></polygon>
                        <polygon id="Fill-87" fill="#FF933D" points="7.24950166 70.8048416 0.171225414 66.6195061 0.195822099 63.1212674 7.2738663 67.3068319"></polygon>
                        <path d="M34.7069204,1.43692548 L41.7849646,5.62226097 C39.7155945,4.39877065 37.1944343,4.04239645 34.3862354,4.66490613 L27.3079591,0.479341613 C30.1163901,-0.142939032 32.6375503,0.213206129 34.7069204,1.43692548" id="Fill-89" fill="#FFB20F"></path>
                    </g>
                    <g id="Group-94" transform="translate(337.000000, 297.000000)">
                        <mask id="mask-4" fill="white">
                            <use xlink:href="#path-3"></use>
                        </mask>
                        <g id="Clip-93"></g>
                        <path d="M7.3096875,4.888248 L0.160546875,0.502488 C2.99695313,-0.149832 5.5434375,0.223368 7.63359375,1.505688 L14.7829688,5.891688 C12.6925781,4.609368 10.1463281,4.235928 7.3096875,4.888248" id="Fill-92" fill="#FFB20F" mask="url(#mask-4)"></path>
                    </g>
                    <g id="Group-101" transform="translate(315.000000, 291.000000)" fill="#FF933D">
                        <polygon id="Fill-95" points="7.20851765 62.9495542 0.0311058824 58.7631469 0.167576471 39.5174487 7.34498824 43.703856"></polygon>
                        <polygon id="Fill-97" points="21.0761647 14.4744447 13.8987529 10.2880375 13.9161647 7.83768109 21.0935765 12.0243175"></polygon>
                        <path d="M20.6263765,0.339948 L27.8037882,4.52635527 C27.0915529,4.11101345 26.1760235,4.10505709 25.2030824,4.62028255 C23.0308471,5.76963164 21.1134353,9.225468 21.0934353,12.0242716 L13.9160235,7.83786436 C13.9360235,5.03906073 15.8534353,1.58322436 18.0256706,0.433646182 C18.9988471,-0.0815792727 19.9143765,-0.0753938182 20.6263765,0.339948" id="Fill-99"></path>
                    </g>
                    <g id="Group-104" transform="translate(329.000000, 291.000000)">
                        <mask id="mask-6" fill="white">
                            <use xlink:href="#path-5"></use>
                        </mask>
                        <g id="Clip-103"></g>
                        <path d="M7.15108333,11.8838038 L0.0334833333,7.74629434 C0.0533166667,4.98018113 1.95451667,1.56470943 4.10865,0.428558491 C5.07395,-0.0806490566 5.98161667,-0.0745358491 6.68791667,0.335954717 L13.8055167,4.47346415 C13.0992167,4.06297358 12.1913167,4.05708679 11.22625,4.56629434 C9.07211667,5.70221887 7.17068333,9.11769057 7.15108333,11.8838038" id="Fill-102" fill="#FF933D" mask="url(#mask-6)"></path>
                    </g>
                    <path d="M321.865477,335 L315,330.740414 C315.073597,319.701946 320.586415,307.731563 328.134523,301 L335,305.259586 C327.451892,311.991149 321.939074,323.961765 321.865477,335" id="Fill-105" fill="#FF933D"></path>
                    <g id="Group-109" transform="translate(315.000000, 301.000000)">
                        <mask id="mask-8" fill="white">
                            <use xlink:href="#path-7"></use>
                        </mask>
                        <g id="Clip-108"></g>
                        <path d="M6.93691111,33.947034 L0.158244444,29.7203946 C0.230911111,18.7673061 5.67402222,6.8895102 13.1266889,0.210013605 L19.9053556,4.43665306 C12.4526889,11.1161497 7.00957778,22.9941769 6.93691111,33.947034" id="Fill-107" fill="#FF933D" mask="url(#mask-8)"></path>
                    </g>
                    <g id="Group-116" transform="translate(40.000000, 295.000000)">
                        <path d="M299.263263,70.8595506 C296.348038,72.4485095 293.984714,70.582479 294.011356,66.7122275 L304.611173,60.9344884 C304.584531,64.8047398 302.17757,69.2712827 299.263263,70.8595506" id="Fill-110" fill="#FBD00F"></path>
                        <path d="M316.633211,40.3629871 L321.885118,44.5103102 L321.860773,48.0279459 L276.810171,72.583913 L276.834516,69.0662773 L282.183115,59.1407544 L282.316325,39.7920306 C282.391428,28.8853561 288.017011,17.0576428 295.719518,10.4063102 L295.736513,7.94283666 C295.755806,5.12928085 297.627402,1.65494477 299.747733,0.499212691 C301.867145,-0.656289072 303.705669,0.79586134 303.686376,3.60941716 L303.669381,6.07289072 C311.336977,4.34643243 316.841523,10.107819 316.766421,21.0144935 L316.633211,40.3629871 Z" id="Fill-112" fill="#FBD00F"></path>
                        <path d="M30.4642776,162.406176 C32.7152919,158.800329 33.4052262,154.392517 33.6169837,152.154984 L28.785376,154.845551 C28.5616756,157.612582 28.0552491,161.186646 26.923426,164.711652 C26.7158026,165.357461 26.4980736,165.983694 26.2759809,166.598411 C27.9401835,165.595379 29.3478425,164.19505 30.4642776,162.406176 M5.56968131,176.269663 C6.66935036,176.822886 8.06621484,176.662815 9.73064708,175.812484 C9.51590385,175.4396 9.30598374,175.053128 9.1068582,174.63349 C8.0191321,172.344596 7.56346305,169.306251 7.37926619,166.766542 L2.54765849,169.457109 C2.72680257,171.478604 3.35564422,175.151934 5.56968131,176.269663 M28.9415529,151.959445 L36.0726357,147.988084 L36.0618411,149.392098 C36.0593147,149.713161 35.956192,157.305569 32.0168596,163.626857 C30.3733275,166.264911 28.3331521,168.265447 25.9372148,169.602209 C25.5745629,169.804197 25.2018054,169.984535 24.8221578,170.157273 C23.442978,173.144258 21.8566342,175.581936 20.0824188,177.344784 L20.0351064,183.517518 L25.2305144,180.624272 L25.2008867,184.490148 L26.9179138,183.53387 L26.9013775,185.700465 L17.908115,190.708714 L17.7985615,190.769518 L8.80483966,195.777997 L8.82137603,193.610481 L10.5374845,192.654665 L10.5671121,188.788559 L15.7625201,185.895313 L15.8096029,179.72281 C14.046182,179.930557 12.4848725,179.245823 11.1396842,177.775247 C10.7618739,178.024451 10.3886571,178.261217 10.0262348,178.462975 C7.62891954,179.796973 5.60206505,180.059765 3.98517489,179.238914 C0.109002282,177.269931 0.121634237,169.727962 0.124160628,169.4069 L0.134955207,168.001504 L7.26603795,164.030373 C7.25271698,162.727008 7.29773267,161.914909 7.30002939,161.8723 L18.0654402,155.867468 L28.9394859,149.82141 C28.9413233,149.861715 28.9748553,150.630054 28.9415529,151.959445" id="Fill-114" fill="#FBFBFB"></path>
                    </g>
                </g>
            </g>
        </g>
    </g>
</svg>