<?xml version="1.0" encoding="utf-8"?>
<!-- Generator: Adobe Illustrator 21.0.0, SVG Export Plug-In . SVG Version: 6.00 Build 0)  -->
<svg version="1.1" id="Layer_1" xmlns="http://www.w3.org/2000/svg" xmlns:xlink="http://www.w3.org/1999/xlink" x="0px" y="0px"
	 viewBox="0 0 195 55" style="enable-background:new 0 0 195 55;" xml:space="preserve">
<style type="text/css">
	.st0{filter:url(#Adobe_OpacityMaskFilter);}
	.st1{fill:#FFFFFF;}
	.st2{mask:url(#mask-2);fill:#FFFFFF;}
	.st3{filter:url(#Adobe_OpacityMaskFilter_1_);}
	.st4{mask:url(#mask-4);fill:#FFFFFF;}
</style>
<title>logo copy</title>
<desc>Created with Sketch.</desc>
<g id="Symbols">
	<g id="logo-white">
		<g id="logo-copy">
			<g id="Group-3" transform="translate(0.652593, 0.474138)">
				<g id="Clip-2">
				</g>
				<defs>
					<filter id="Adobe_OpacityMaskFilter" filterUnits="userSpaceOnUse" x="0" y="0" width="47.8" height="46.1">
						<feColorMatrix  type="matrix" values="1 0 0 0 0  0 1 0 0 0  0 0 1 0 0  0 0 0 1 0"/>
					</filter>
				</defs>
				<mask maskUnits="userSpaceOnUse" x="0" y="0" width="47.8" height="46.1" id="mask-2">
					<g class="st0">
						<polygon id="path-1" class="st1" points="0,46.1 0,0 47.8,0 47.8,46.1 						"/>
					</g>
				</mask>
				<path id="Fill-1" class="st2" d="M25.3,43c-4.2,4.2-11,4.2-15.3,0L3.2,36c-4.2-4.2-4.2-11.1,0-15.3L23.3,0.6
					c0.8-0.8,2.1-0.8,2.9,0s0.8,2.1,0,2.9L6.1,23.7c-2.6,2.6-2.6,6.8,0,9.4L13,40c2.6,2.6,6.8,2.6,9.4,0l21.9-21.9
					c0.8-0.8,2.1-0.8,2.9,0s0.8,2.1,0,2.9L25.3,43z"/>
			</g>
			<path id="Fill-4" class="st1" d="M10.6,30.8c-0.8-0.8-0.8-2.1,0-2.9L30.7,7.7c0.8-0.8,2.1-0.8,2.9,0h0c0.8,0.8,0.8,2.1,0,2.9
				L13.5,30.8C12.7,31.6,11.4,31.6,10.6,30.8"/>
			<path id="Fill-6" class="st1" d="M53.9,24.9c0.8,0.8,0.8,2.1,0,2.9L34.6,47.3c-0.8,0.8-2.1,0.8-2.9,0h0c-0.8-0.8-0.8-2.1,0-2.9
				L51,24.9C51.8,24.1,53.1,24.1,53.9,24.9"/>
			<path id="Fill-8" class="st1" d="M16.7,33.9L39,11.5c4.2-4.2,11.1-4.2,15.3,0l6.9,6.9c4.2,4.2,4.2,11.1,0,15.3L41,53.9
				c-0.8,0.8-2.1,0.8-2.9,0c-0.8-0.8-0.8-2.1,0-3l20.1-20.2c2.6-2.6,2.6-6.8,0-9.4l-6.9-6.9c-2.6-2.6-6.8-2.6-9.4,0L19.6,36.8
				c-0.8,0.8-2.1,0.8-2.9,0C15.9,36,15.9,34.7,16.7,33.9"/>
			<path id="Fill-10" class="st1" d="M83.6,32.9c0-0.4-0.1-0.8-0.3-1c-0.2-0.3-0.6-0.5-1-0.7s-1-0.4-1.8-0.6
				c-0.7-0.2-1.5-0.4-2.5-0.6c-1.8-0.4-3-1-3.7-1.9c-0.7-0.9-1.1-1.9-1.1-3.1c0-0.7,0.1-1.3,0.4-1.9c0.3-0.6,0.7-1.1,1.2-1.6
				c0.5-0.5,1.2-0.8,2-1.1c0.8-0.3,1.7-0.4,2.8-0.4c1.1,0,2,0.1,2.8,0.4c0.8,0.2,1.5,0.6,2,0.9c0.5,0.4,1,0.8,1.2,1.2
				c0.3,0.4,0.4,0.8,0.5,1.2c0,0.2-0.1,0.5-0.2,0.6c-0.2,0.2-0.4,0.3-0.6,0.3h-1.1c-0.1,0-0.3,0-0.5-0.1c-0.2-0.1-0.4-0.2-0.5-0.4
				c-0.3-0.4-0.7-0.7-1.3-0.9c-0.6-0.3-1.3-0.4-2.3-0.4c-1,0-1.8,0.2-2.4,0.6c-0.6,0.4-0.9,0.9-0.9,1.6c0,0.4,0.1,0.8,0.3,1
				c0.2,0.3,0.5,0.5,0.9,0.7c0.4,0.2,0.9,0.4,1.6,0.5c0.6,0.2,1.4,0.3,2.4,0.6c1,0.2,1.8,0.5,2.5,0.8c0.7,0.3,1.2,0.7,1.6,1.2
				c0.4,0.4,0.7,0.9,0.9,1.4c0.2,0.5,0.3,1.1,0.3,1.6c0,0.7-0.2,1.3-0.5,1.9c-0.3,0.6-0.8,1.2-1.4,1.6c-0.6,0.5-1.3,0.8-2.1,1.1
				c-0.8,0.3-1.8,0.4-2.9,0.4c-1.1,0-2-0.1-2.9-0.4c-0.8-0.3-1.5-0.6-2.1-1c-0.6-0.4-1-0.8-1.4-1.3c-0.3-0.5-0.5-0.9-0.5-1.3
				c0-0.2,0.1-0.5,0.2-0.6c0.2-0.2,0.4-0.3,0.7-0.3H75c0.1,0,0.3,0,0.5,0c0.2,0,0.3,0.2,0.5,0.4c0.3,0.5,0.8,0.9,1.4,1.1
				c0.6,0.3,1.4,0.4,2.4,0.4c0.5,0,1-0.1,1.4-0.2c0.5-0.1,0.9-0.3,1.2-0.5c0.4-0.2,0.7-0.4,0.9-0.7C83.5,33.6,83.6,33.3,83.6,32.9"
				/>
			<path id="Fill-12" class="st1" d="M88.6,21.3c0-0.2,0.1-0.4,0.3-0.6c0.2-0.2,0.4-0.3,0.6-0.3h1.2c0.2,0,0.5,0.1,0.6,0.3
				c0.2,0.2,0.3,0.4,0.3,0.6V30c0,1.7,0.4,3,1.1,3.8c0.8,0.8,1.9,1.3,3.3,1.3c1.4,0,2.5-0.4,3.3-1.3c0.8-0.8,1.2-2.1,1.2-3.8v-8.7
				c0-0.2,0.1-0.4,0.3-0.6c0.2-0.2,0.4-0.3,0.6-0.3h1.2c0.2,0,0.5,0.1,0.6,0.3c0.2,0.2,0.3,0.4,0.3,0.6v15.3c0,0.2-0.1,0.4-0.3,0.6
				c-0.2,0.2-0.4,0.3-0.6,0.3h-1.2c-0.2,0-0.5-0.1-0.6-0.3c-0.2-0.2-0.3-0.4-0.3-0.6v-1c-0.4,0.5-1,1.1-1.8,1.5
				c-0.8,0.5-1.8,0.7-3.2,0.7c-1,0-2-0.2-2.8-0.5c-0.9-0.3-1.6-0.8-2.2-1.4c-0.6-0.6-1.1-1.4-1.4-2.3c-0.3-0.9-0.5-1.9-0.5-3.1V21.3
				z"/>
			<path id="Fill-14" class="st1" d="M109.4,27.6c0,0.3,0,0.8,0,1.3c0,0.5,0,1,0,1.3c0.1,1.6,0.5,2.8,1.4,3.6c0.9,0.8,2,1.3,3.4,1.3
				c1.5,0,2.6-0.5,3.4-1.4c0.8-0.9,1.3-2.2,1.4-3.8c0-0.6,0-1.2,0-1.9c-0.1-1.6-0.6-2.8-1.4-3.8c-0.8-0.9-2-1.4-3.4-1.4
				c-1.4,0-2.5,0.4-3.4,1.3C110,25.1,109.5,26.2,109.4,27.6 M114.6,38c-1.4,0-2.5-0.2-3.3-0.7c-0.8-0.5-1.4-1-1.9-1.5v7.3
				c0,0.2-0.1,0.5-0.3,0.6c-0.2,0.2-0.4,0.3-0.6,0.3h-1.2c-0.2,0-0.5-0.1-0.6-0.3c-0.2-0.2-0.3-0.4-0.3-0.6V21.4
				c0-0.2,0.1-0.5,0.3-0.6c0.2-0.2,0.4-0.3,0.6-0.3h1.2c0.2,0,0.5,0.1,0.6,0.3c0.2,0.2,0.3,0.4,0.3,0.6v1c0.4-0.6,1.1-1.1,1.9-1.6
				c0.8-0.5,1.9-0.7,3.2-0.7c1,0,2,0.2,2.9,0.5c0.9,0.4,1.7,0.9,2.3,1.6c0.7,0.7,1.2,1.5,1.6,2.5c0.4,1,0.6,2.1,0.7,3.3
				c0,0.3,0,0.7,0,1.1c0,0.4,0,0.7,0,1.1c-0.1,1.2-0.3,2.3-0.7,3.3c-0.4,1-0.9,1.8-1.6,2.5c-0.7,0.7-1.4,1.2-2.3,1.6
				C116.6,37.8,115.6,38,114.6,38"/>
			<path id="Fill-16" class="st1" d="M127.6,27.5h9.2v-0.1c0-1.4-0.4-2.4-1.3-3.2c-0.8-0.8-2-1.2-3.4-1.2c-0.6,0-1.2,0.1-1.8,0.3
				c-0.5,0.2-1,0.5-1.4,0.9c-0.4,0.4-0.7,0.9-1,1.4C127.7,26.2,127.6,26.8,127.6,27.5L127.6,27.5z M124.6,27.4c0.1-1,0.3-2,0.7-2.9
				c0.4-0.9,0.9-1.7,1.5-2.3c0.6-0.7,1.4-1.2,2.3-1.6c0.9-0.4,1.9-0.6,3-0.6c1.2,0,2.2,0.2,3.2,0.6c0.9,0.4,1.7,0.9,2.4,1.7
				c0.7,0.7,1.2,1.6,1.5,2.7c0.3,1,0.5,2.2,0.5,3.5v0.9c0,0.2-0.1,0.5-0.3,0.6c-0.2,0.2-0.4,0.3-0.6,0.3h-11.3v0.2
				c0,1.5,0.5,2.7,1.4,3.5c0.9,0.8,1.9,1.2,3.2,1.2c1.2,0,2.1-0.2,2.7-0.5c0.6-0.3,1.1-0.7,1.5-1.1c0.2-0.2,0.3-0.3,0.5-0.4
				c0.1-0.1,0.3-0.1,0.6-0.1h1c0.2,0,0.5,0.1,0.7,0.3c0.2,0.2,0.3,0.4,0.2,0.6c-0.1,0.4-0.3,0.8-0.6,1.3c-0.3,0.5-0.7,0.9-1.3,1.3
				c-0.6,0.4-1.3,0.8-2.2,1c-0.9,0.3-1.9,0.4-3,0.4c-1.1,0-2.1-0.2-3-0.6c-0.9-0.4-1.6-0.9-2.3-1.6c-0.6-0.7-1.2-1.5-1.6-2.4
				c-0.4-0.9-0.6-1.9-0.7-3C124.5,29.5,124.5,28.5,124.6,27.4z"/>
			<path id="Fill-18" class="st1" d="M151.1,20.4c0.2,0,0.4,0.1,0.6,0.3c0.2,0.2,0.3,0.4,0.3,0.6v1.1c0,0.2-0.1,0.5-0.3,0.6
				c-0.2,0.2-0.4,0.3-0.6,0.3h-1.9c-2.5,0-3.8,1.3-3.8,3.8v9.7c0,0.2-0.1,0.5-0.3,0.6c-0.2,0.2-0.4,0.3-0.6,0.3h-1.2
				c-0.2,0-0.4-0.1-0.6-0.3c-0.2-0.2-0.3-0.4-0.3-0.6V21.3c0-0.2,0.1-0.5,0.3-0.6c0.2-0.2,0.4-0.3,0.6-0.3h1.2
				c0.2,0,0.4,0.1,0.6,0.3c0.2,0.2,0.3,0.4,0.3,0.6v1c0.4-0.7,1-1.1,1.6-1.5c0.6-0.3,1.4-0.5,2.4-0.5H151.1z"/>
			<path id="Fill-20" class="st1" d="M163.4,32.9c0-0.4-0.1-0.8-0.3-1c-0.2-0.3-0.6-0.5-1-0.7c-0.5-0.2-1-0.4-1.8-0.6
				c-0.7-0.2-1.5-0.4-2.5-0.6c-1.8-0.4-3-1-3.7-1.9c-0.7-0.9-1.1-1.9-1.1-3.1c0-0.7,0.1-1.3,0.4-1.9c0.3-0.6,0.7-1.1,1.2-1.6
				c0.5-0.5,1.2-0.8,2-1.1c0.8-0.3,1.7-0.4,2.8-0.4c1.1,0,2,0.1,2.8,0.4c0.8,0.2,1.5,0.6,2,0.9c0.5,0.4,1,0.8,1.2,1.2
				c0.3,0.4,0.4,0.8,0.5,1.2c0,0.2-0.1,0.5-0.2,0.6c-0.2,0.2-0.4,0.3-0.6,0.3H164c-0.1,0-0.3,0-0.5-0.1c-0.2-0.1-0.4-0.2-0.5-0.4
				c-0.3-0.4-0.7-0.7-1.3-0.9c-0.6-0.3-1.3-0.4-2.3-0.4c-1,0-1.8,0.2-2.4,0.6c-0.6,0.4-0.9,0.9-0.9,1.6c0,0.4,0.1,0.8,0.3,1
				c0.2,0.3,0.5,0.5,0.9,0.7c0.4,0.2,0.9,0.4,1.6,0.5c0.6,0.2,1.4,0.3,2.4,0.6c1,0.2,1.8,0.5,2.5,0.8c0.7,0.3,1.2,0.7,1.6,1.2
				c0.4,0.4,0.7,0.9,0.9,1.4c0.2,0.5,0.3,1.1,0.3,1.6c0,0.7-0.2,1.3-0.5,1.9c-0.3,0.6-0.8,1.2-1.4,1.6c-0.6,0.5-1.3,0.8-2.1,1.1
				c-0.8,0.3-1.8,0.4-2.9,0.4c-1.1,0-2-0.1-2.9-0.4c-0.8-0.3-1.5-0.6-2.1-1c-0.6-0.4-1-0.8-1.4-1.3c-0.3-0.5-0.5-0.9-0.5-1.3
				c0-0.2,0.1-0.5,0.2-0.6c0.2-0.2,0.4-0.3,0.7-0.3h1.2c0.1,0,0.3,0,0.5,0c0.2,0,0.3,0.2,0.5,0.4c0.3,0.5,0.8,0.9,1.4,1.1
				c0.6,0.3,1.4,0.4,2.4,0.4c0.5,0,1-0.1,1.4-0.2c0.5-0.1,0.9-0.3,1.2-0.5c0.4-0.2,0.7-0.4,0.9-0.7
				C163.3,33.6,163.4,33.3,163.4,32.9"/>
			<path id="Fill-22" class="st1" d="M170.4,27.5h9.2v-0.1c0-1.4-0.4-2.4-1.3-3.2c-0.8-0.8-2-1.2-3.4-1.2c-0.6,0-1.2,0.1-1.8,0.3
				c-0.5,0.2-1,0.5-1.4,0.9c-0.4,0.4-0.7,0.9-1,1.4C170.6,26.2,170.4,26.8,170.4,27.5L170.4,27.5z M167.5,27.4c0.1-1,0.3-2,0.7-2.9
				c0.4-0.9,0.9-1.7,1.5-2.3c0.6-0.7,1.4-1.2,2.3-1.6c0.9-0.4,1.9-0.6,3-0.6c1.2,0,2.2,0.2,3.2,0.6c0.9,0.4,1.7,0.9,2.4,1.7
				c0.7,0.7,1.2,1.6,1.5,2.7c0.3,1,0.5,2.2,0.5,3.5v0.9c0,0.2-0.1,0.5-0.3,0.6c-0.2,0.2-0.4,0.3-0.6,0.3h-11.3v0.2
				c0,1.5,0.5,2.7,1.4,3.5c0.9,0.8,1.9,1.2,3.2,1.2c1.2,0,2.1-0.2,2.7-0.5c0.6-0.3,1.1-0.7,1.5-1.1c0.2-0.2,0.3-0.3,0.5-0.4
				c0.1-0.1,0.3-0.1,0.6-0.1h1c0.2,0,0.5,0.1,0.7,0.3c0.2,0.2,0.3,0.4,0.2,0.6c-0.1,0.4-0.3,0.8-0.6,1.3c-0.3,0.5-0.7,0.9-1.3,1.3
				c-0.6,0.4-1.3,0.8-2.2,1c-0.9,0.3-1.9,0.4-3,0.4c-1.1,0-2.1-0.2-3-0.6c-0.9-0.4-1.6-0.9-2.3-1.6c-0.6-0.7-1.2-1.5-1.6-2.4
				c-0.4-0.9-0.6-1.9-0.7-3C167.4,29.5,167.4,28.5,167.5,27.4z"/>
			<g id="Group-26" transform="translate(182.593486, 13.987069)">
				<g id="Clip-25">
				</g>
				<defs>
					<filter id="Adobe_OpacityMaskFilter_1_" filterUnits="userSpaceOnUse" x="0.1" y="0" width="11.8" height="23.6">
						<feColorMatrix  type="matrix" values="1 0 0 0 0  0 1 0 0 0  0 0 1 0 0  0 0 0 1 0"/>
					</filter>
				</defs>
				<mask maskUnits="userSpaceOnUse" x="0.1" y="0" width="11.8" height="23.6" id="mask-4">
					<g class="st3">
						<polygon id="path-3" class="st1" points="11.9,23.6 11.9,0 0.1,0 0.1,23.6 						"/>
					</g>
				</mask>
				<path id="Fill-24" class="st4" d="M6.5,17.8c0,0.4,0,0.8,0.1,1.2c0.1,0.4,0.2,0.7,0.4,0.9c0.2,0.3,0.5,0.5,0.8,0.6
					c0.4,0.1,0.8,0.2,1.4,0.2H11c0.2,0,0.5,0.1,0.6,0.3c0.2,0.2,0.3,0.4,0.3,0.6v1.1c0,0.2-0.1,0.5-0.3,0.6
					c-0.2,0.2-0.4,0.3-0.6,0.3H8.9c-1.9,0-3.3-0.5-4.2-1.5c-0.9-1-1.3-2.4-1.3-4.3V9.2H1c-0.2,0-0.5-0.1-0.6-0.3
					C0.2,8.7,0.1,8.5,0.1,8.3V7.2c0-0.2,0.1-0.5,0.3-0.6C0.6,6.4,0.8,6.3,1,6.3h2.5V0.9c0-0.2,0.1-0.5,0.3-0.6C3.9,0.1,4.1,0,4.4,0
					h1.2C5.8,0,6,0.1,6.2,0.3c0.2,0.2,0.3,0.4,0.3,0.6v5.4h4.2c0.2,0,0.5,0.1,0.6,0.3c0.2,0.2,0.3,0.4,0.3,0.6v1.1
					c0,0.2-0.1,0.5-0.3,0.6c-0.2,0.2-0.4,0.3-0.6,0.3H6.5V17.8z"/>
			</g>
		</g>
	</g>
</g>
</svg>
